<svg width="20" height="20" viewBox="0 0 20 20" fill="none" xmlns="http://www.w3.org/2000/svg">
<mask id="mask0_140_1018" style="mask-type:luminance" maskUnits="userSpaceOnUse" x="0" y="0" width="20" height="20">
<path d="M19.4775 0H0V19.4771H19.4775V0Z" fill="white"/>
</mask>
<g mask="url(#mask0_140_1018)">
<path d="M7.32938 0.75H1.875C1.25368 0.75 0.75 1.25368 0.75 1.875V8.59912C0.75 9.22046 1.25368 9.72412 1.875 9.72412H7.32938C7.95071 9.72412 8.45438 9.22046 8.45438 8.59912V1.875C8.45438 1.25368 7.95071 0.75 7.32938 0.75Z" stroke="#1E1E1E" stroke-width="1.5" stroke-linecap="round" stroke-linejoin="round"/>
<path d="M17.6026 0.75H12.1482C11.5269 0.75 11.0232 1.25368 11.0232 1.875V3.477C11.0232 4.09834 11.5269 4.602 12.1482 4.602H17.6026C18.2239 4.602 18.7276 4.09834 18.7276 3.477V1.875C18.7276 1.25368 18.2239 0.75 17.6026 0.75Z" stroke="#1E1E1E" stroke-width="1.5" stroke-linecap="round" stroke-linejoin="round"/>
<path d="M17.6026 7.16992H12.1482C11.5269 7.16992 11.0232 7.67358 11.0232 8.29492V17.602C11.0232 18.2234 11.5269 18.727 12.1482 18.727H17.6026C18.2239 18.727 18.7276 18.2234 18.7276 17.602V8.29492C18.7276 7.67358 18.2239 7.16992 17.6026 7.16992Z" stroke="#1E1E1E" stroke-width="1.5" stroke-linecap="round" stroke-linejoin="round"/>
<path d="M7.32938 12.3066H1.875C1.25368 12.3066 0.75 12.8103 0.75 13.4316V17.602C0.75 18.2233 1.25368 18.727 1.875 18.727H7.32938C7.95071 18.727 8.45438 18.2233 8.45438 17.602V13.4316C8.45438 12.8103 7.95071 12.3066 7.32938 12.3066Z" stroke="#1E1E1E" stroke-width="1.5" stroke-linecap="round" stroke-linejoin="round"/>
</g>
</svg>
