<svg width="24" height="24" viewBox="0 0 24 24" fill="none" xmlns="http://www.w3.org/2000/svg">
<g clip-path="url(#clip0_16_391)">
<path d="M2.42911 6.95617C1.36968 11.151 1.40396 17.0687 1.61139 20.5196C1.63378 20.8998 1.78875 21.2602 2.04933 21.538C2.30992 21.8158 2.65964 21.9935 3.03768 22.0402C4.97482 22.2922 8.71025 22.7139 11.9982 22.7139C15.2845 22.7139 19.0182 22.2922 20.9571 22.0402C21.3351 21.9935 21.6849 21.8158 21.9454 21.538C22.206 21.2602 22.361 20.8998 22.3834 20.5196C22.5925 17.0687 22.6268 11.151 21.5674 6.95617C21.4815 6.61138 21.2793 6.3068 20.9948 6.09388C19.3937 4.89388 16.0885 2.75445 12.5365 1.47217C12.1875 1.34652 11.8056 1.34652 11.4565 1.47217C7.90796 2.75445 4.60111 4.89388 2.99996 6.09388C2.71551 6.3068 2.51326 6.61138 2.42739 6.95617H2.42911Z" stroke="#828282" stroke-width="1.5" stroke-linecap="round" stroke-linejoin="round"/>
<path d="M12 17.9994C12 17.5448 11.8194 17.1088 11.4979 16.7873C11.1764 16.4658 10.7404 16.2852 10.2857 16.2852H7.71429C7.25963 16.2852 6.82359 16.4658 6.5021 16.7873C6.18061 17.1088 6 17.5448 6 17.9994V20.5709C6 21.0255 6.18061 21.4616 6.5021 21.7831C6.82359 22.1045 7.25963 22.2852 7.71429 22.2852H10.2857C10.7404 22.2852 11.1764 22.1045 11.4979 21.7831C11.8194 21.4616 12 21.0255 12 20.5709M12 17.9994V20.5709M12 17.9994C12 17.5448 12.1806 17.1088 12.5021 16.7873C12.8236 16.4658 13.2596 16.2852 13.7143 16.2852H16.2857C16.7404 16.2852 17.1764 16.4658 17.4979 16.7873C17.8194 17.1088 18 17.5448 18 17.9994V20.5709C18 21.0255 17.8194 21.4616 17.4979 21.7831C17.1764 22.1045 16.7404 22.2852 16.2857 22.2852H13.7143C13.2596 22.2852 12.8236 22.1045 12.5021 21.7831C12.1806 21.4616 12 21.0255 12 20.5709M9 14.5709V11.9994C9 11.5448 9.18061 11.1088 9.5021 10.7873C9.82359 10.4658 10.2596 10.2852 10.7143 10.2852H13.2857C13.7404 10.2852 14.1764 10.4658 14.4979 10.7873C14.8194 11.1088 15 11.5448 15 11.9994V14.5709C15 15.0255 14.8194 15.4616 14.4979 15.7831C14.1764 16.1045 13.7404 16.2852 13.2857 16.2852H10.7143C10.2596 16.2852 9.82359 16.1045 9.5021 15.7831C9.18061 15.4616 9 15.0255 9 14.5709Z" stroke="#828282" stroke-width="1.5" stroke-linecap="round" stroke-linejoin="round"/>
</g>
<defs>
<clipPath id="clip0_16_391">
<rect width="24" height="24" fill="white"/>
</clipPath>
</defs>
</svg>
