<svg width="40" height="40" viewBox="0 0 40 40" fill="none" xmlns="http://www.w3.org/2000/svg">
<path d="M27.0664 5.83301H12.8997C10.6896 5.83301 8.56999 6.71098 7.00718 8.27378C5.44438 9.83659 4.56641 11.9562 4.56641 14.1663V25.833C4.56641 26.9274 4.78195 28.011 5.20074 29.022C5.61953 30.0331 6.23336 30.9517 7.00718 31.7256C8.56999 33.2884 10.6896 34.1663 12.8997 34.1663H27.0664C28.1608 34.1663 29.2444 33.9508 30.2554 33.532C31.2665 33.1132 32.1851 32.4994 32.959 31.7256C33.7328 30.9517 34.3466 30.0331 34.7654 29.022C35.1842 28.011 35.3997 26.9274 35.3997 25.833V14.1663C35.3997 13.072 35.1842 11.9884 34.7654 10.9773C34.3466 9.96627 33.7328 9.04761 32.959 8.27378C32.1851 7.49996 31.2665 6.88613 30.2554 6.46735C29.2444 6.04856 28.1608 5.83301 27.0664 5.83301Z" stroke="#828282" stroke-width="2" stroke-linecap="round" stroke-linejoin="round"/>
<path d="M4.9834 28.3327L9.56673 22.9993C10.1665 22.4037 10.9536 22.0336 11.7949 21.9515C12.6361 21.8695 13.4799 22.0807 14.1834 22.5493C14.8869 23.018 15.7306 23.2292 16.5719 23.1471C17.4132 23.0651 18.2003 22.695 18.8001 22.0993L22.6834 18.216C23.7992 17.0964 25.2766 16.4097 26.8518 16.2784C28.427 16.1472 29.9977 16.5799 31.2834 17.4993L35.4334 20.716M13.3167 16.9493C13.6801 16.9493 14.0398 16.8778 14.3755 16.7387C14.7112 16.5997 15.0162 16.3959 15.2731 16.139C15.53 15.8821 15.7338 15.5771 15.8728 15.2414C16.0118 14.9058 16.0834 14.546 16.0834 14.1827C16.0834 13.8194 16.0118 13.4596 15.8728 13.1239C15.7338 12.7883 15.53 12.4833 15.2731 12.2264C15.0162 11.9694 14.7112 11.7657 14.3755 11.6266C14.0398 11.4876 13.6801 11.416 13.3167 11.416C12.583 11.416 11.8793 11.7075 11.3604 12.2264C10.8416 12.7452 10.5501 13.4489 10.5501 14.1827C10.5501 14.9164 10.8416 15.6202 11.3604 16.139C11.8793 16.6579 12.583 16.9493 13.3167 16.9493Z" stroke="#828282" stroke-width="2" stroke-linecap="round" stroke-linejoin="round"/>
</svg>
